<svg xmlns="http://www.w3.org/2000/svg" viewBox="0 0 85.81 18.58"><defs><style>.cls-1{fill:#231815;}</style></defs><title>자산 2</title><g id="레이어_2" data-name="레이어 2"><g id="레이어_1-2" data-name="레이어 1"><path class="cls-1" d="M0,.59A.64.64,0,0,1,.39.16.71.71,0,0,1,.92,0a.64.64,0,0,1,.51.33L6.68,8.68,11.88.47a.8.8,0,0,1,.53-.41A.87.87,0,0,1,13,.11a.78.78,0,0,1,.37.41.94.94,0,0,1-.12.63L7.42,10.34v7.42a.81.81,0,0,1-.24.6.76.76,0,0,1-.53.2.78.78,0,0,1-.53-.2.88.88,0,0,1-.21-.6V10.34L.15,1.19A.68.68,0,0,1,0,.59Z"/><path class="cls-1" d="M22.11.23A.75.75,0,0,1,22.64,0a.74.74,0,0,1,.5.17.75.75,0,0,1,.24.6V12a5.48,5.48,0,0,0,1.16,3.56,4.68,4.68,0,0,0,3.83,1.64,4.61,4.61,0,0,0,3.8-1.64A5.4,5.4,0,0,0,33.33,12V.66a.66.66,0,0,1,.21-.5A.94.94,0,0,1,34.07,0a.73.73,0,0,1,.51.2.57.57,0,0,1,.24.5V12a6.66,6.66,0,0,1-1.54,4.5,6.06,6.06,0,0,1-4.91,2.08,6.09,6.09,0,0,1-4.94-2.08A6.66,6.66,0,0,1,21.89,12V.81A.76.76,0,0,1,22.11.23Z"/><path class="cls-1" d="M50.76.21a.76.76,0,0,1,.53-.2.79.79,0,0,1,.53.2.75.75,0,0,1,.24.6v13a4.73,4.73,0,0,1-1.21,3.3,4.48,4.48,0,0,1-3.58,1.5,4.64,4.64,0,0,1-3.62-1.47A4.5,4.5,0,0,1,42.5,14a.85.85,0,0,1,.21-.61.82.82,0,0,1,.53-.19.69.69,0,0,1,.51.15.57.57,0,0,1,.24.5,3.57,3.57,0,0,0,.79,2.39,3.17,3.17,0,0,0,2.49,1,3.07,3.07,0,0,0,2.45-1,3.83,3.83,0,0,0,.82-2.61V.81A.78.78,0,0,1,50.76.21Z"/><path class="cls-1" d="M62.12.21a.76.76,0,0,1,.53-.2.72.72,0,0,1,.5.2.75.75,0,0,1,.24.6v17a.75.75,0,0,1-.74.78.76.76,0,0,1-.53-.2.75.75,0,0,1-.22-.58V.81A.78.78,0,0,1,62.12.21Z"/><path class="cls-1" d="M73.91,0A1.07,1.07,0,0,1,75,.52l.82,1.2,8.45,14.07V.66a.63.63,0,0,1,.22-.5A.9.9,0,0,1,85,0a.86.86,0,0,1,.53.17.56.56,0,0,1,.24.48V17.52a.89.89,0,0,1-.65,1,.72.72,0,0,1-.94-.32l-1.35-2L74.71,2.76v15a.87.87,0,0,1-.24.65.71.71,0,0,1-.53.22.84.84,0,0,1-.53-.24.88.88,0,0,1-.22-.63V1C73.19.41,73.43.09,73.91,0Z"/></g></g></svg>