<svg xmlns="http://www.w3.org/2000/svg" viewBox="0 0 75.24 28.48"><defs><style>.cls-1{fill:#fff;}.cls-2{fill:#b090c1;}</style></defs><title>자산 1</title><g id="레이어_2" data-name="레이어 2"><g id="레이어_1-2" data-name="레이어 1"><path class="cls-1" d="M.67,28.26a.38.38,0,0,1-.32-.48L.44,26.7c0-.25.13-.32.38-.22A3.28,3.28,0,0,0,2,26.67a3.61,3.61,0,0,0,1.21-.2,2,2,0,0,0,.84-.56,6.49,6.49,0,0,0,.78-1.45c.28-.68.56-1.45.84-2.32L2.85,14.51,0,6.88a.39.39,0,0,1,0-.3.25.25,0,0,1,.26-.14H1.77a.66.66,0,0,1,.64.44L6.68,19.17C7.46,17,8.21,15,8.91,13l2.24-6.13a.61.61,0,0,1,.63-.44h1.36a.25.25,0,0,1,.26.14.39.39,0,0,1,0,.3L6.81,24.55A10.53,10.53,0,0,1,6,26.2a5.74,5.74,0,0,1-.87,1.17,3.88,3.88,0,0,1-1.26.81,4,4,0,0,1-1.46.27,7.53,7.53,0,0,1-.86,0A6.56,6.56,0,0,1,.67,28.26Z"/><path class="cls-1" d="M32.81,23.13a.39.39,0,0,1-.45.44H31.22a.39.39,0,0,1-.44-.44V20.5a5.78,5.78,0,0,1-2.2,2.74,6.56,6.56,0,0,1-3.47.84q-5.92,0-5.92-6.62V6.88a.39.39,0,0,1,.44-.44H20.9a.39.39,0,0,1,.44.44v10c0,3.59,1.38,5.38,4.12,5.38a4.46,4.46,0,0,0,2.17-.52,4.85,4.85,0,0,0,1.63-1.43,6.61,6.61,0,0,0,1-2.1,8.16,8.16,0,0,0,.32-2.54V6.88A.39.39,0,0,1,31,6.44H32.3a.39.39,0,0,1,.44.44V19.61c0,.7,0,1.32,0,1.87S32.79,22.58,32.81,23.13Z"/><path class="cls-1" d="M38.54,28.38c-.3,0-.44-.22-.44-.6V26.9c0-.26.14-.35.44-.29a2.06,2.06,0,0,0,.36.05h.43a2.68,2.68,0,0,0,1.27-.27,2.09,2.09,0,0,0,.79-.71,5.45,5.45,0,0,0,.35-2.28V6.88a.39.39,0,0,1,.44-.44h1.27a.39.39,0,0,1,.44.44V23.63q0,4.85-4,4.85l-.74,0A5.47,5.47,0,0,1,38.54,28.38Z"/><path class="cls-1" d="M53.45,23.57H52.06a.39.39,0,0,1-.44-.44V6.88a.39.39,0,0,1,.44-.44h1.39a.39.39,0,0,1,.45.44V23.13A.39.39,0,0,1,53.45,23.57Z"/><path class="cls-1" d="M75.24,23.13a.39.39,0,0,1-.44.44H73.53a.39.39,0,0,1-.44-.44v-10A6.35,6.35,0,0,0,72,9,3.67,3.67,0,0,0,69.1,7.8a5.11,5.11,0,0,0-3.91,1.42,5.57,5.57,0,0,0-1.35,4v9.92a.39.39,0,0,1-.44.44H62.13a.39.39,0,0,1-.44-.44V10.46c0-.91,0-1.62,0-2.12s0-1-.08-1.46a.33.33,0,0,1,.11-.33A.51.51,0,0,1,62,6.44h1.14a.39.39,0,0,1,.44.44V8.62a5.55,5.55,0,0,1,2.14-2A7.71,7.71,0,0,1,69.19,6a5.69,5.69,0,0,1,4.53,1.75,7.22,7.22,0,0,1,1.52,4.9Z"/><circle class="cls-2" cx="42.74" cy="1.5" r="1.5"/><circle class="cls-2" cx="52.76" cy="1.5" r="1.5"/></g></g></svg>